HIERARCHY
ROOT Pelvis
{
	OFFSET 0.000000 0.000000 0.000000
	CHANNELS 6 Xposition Yposition Zposition Xrotation Yrotation Zrotation
	JOINT LeftUpLeg_virtual
	{
		OFFSET 0.000000 0.000000 0.000000
		CHANNELS 3 Xrotation Yrotation Zrotation
		JOINT LeftUpLeg
		{
			OFFSET 18.735201 -5.666702 -4.541200
			CHANNELS 3 Xrotation Yrotation Zrotation
			JOINT LeftLeg
			{
				OFFSET -0.021200 -31.938179 0.493100
				CHANNELS 3 Xrotation Yrotation Zrotation
				JOINT LeftFoot
				{
					OFFSET 0.021200 -31.938179 -4.336299
					CHANNELS 3 Xrotation Yrotation Zrotation
					JOINT LeftToeBase
					{
						OFFSET 0.943001 -26.722000 15.023500
						CHANNELS 3 Xrotation Yrotation Zrotation
						End Site
						{
							OFFSET 0 0 0
						}
					}
				}
			}
		}
	}
	JOINT RightUpLeg_virtual
	{
		OFFSET 0.000000 0.000000 0.000000
		CHANNELS 3 Xrotation Yrotation Zrotation
		JOINT RightUpLeg
		{
			OFFSET -18.735201 -5.666702 -4.541200
			CHANNELS 3 Xrotation Yrotation Zrotation
			JOINT RightLeg
			{
				OFFSET 0.018946 -31.938133 0.493100
				CHANNELS 3 Xrotation Yrotation Zrotation
				JOINT RightFoot
				{
					OFFSET -0.018946 -31.938126 -4.336299
					CHANNELS 3 Xrotation Yrotation Zrotation
					JOINT RightToeBase
					{
						OFFSET -0.943001 -26.722004 15.023500
						CHANNELS 3 Xrotation Yrotation Zrotation
						End Site
						{
							OFFSET 0 0 0
						}
					}
				}
			}
		}
	}
	JOINT Hips_virtual
	{
		OFFSET 0.000000 0.000000 0.000000
		CHANNELS 3 Xrotation Yrotation Zrotation
		JOINT Hips
		{
			OFFSET -0.000000 -0.000000 -0.000000
			CHANNELS 3 Xrotation Yrotation Zrotation
			JOINT Spine
			{
				OFFSET 0.000000 10.199997 -0.299500
				CHANNELS 3 Xrotation Yrotation Zrotation
				JOINT Spine1
				{
					OFFSET 0.000000 11.900002 -1.516600
					CHANNELS 3 Xrotation Yrotation Zrotation
					JOINT Spine2
					{
						OFFSET 0.000000 13.600006 -2.842500
						CHANNELS 3 Xrotation Yrotation Zrotation
						JOINT Neck_virtual
						{
							OFFSET 0.000000 0.000000 0.000000
							CHANNELS 3 Xrotation Yrotation Zrotation
							JOINT Neck
							{
								OFFSET 0.000000 9.624100 -2.890100
								CHANNELS 3 Xrotation Yrotation Zrotation
								JOINT Head
								{
									OFFSET 0.000000 14.068802 -1.351900
									CHANNELS 3 Xrotation Yrotation Zrotation
									End Site
									{
										OFFSET 0 0 0
									}
								}
							}
						}
						JOINT LeftShoulder_virtual
						{
							OFFSET 0.000000 0.000000 0.000000
							CHANNELS 3 Xrotation Yrotation Zrotation
							JOINT LeftShoulder
							{
								OFFSET 15.263000 10.923401 -0.547700
								CHANNELS 3 Xrotation Yrotation Zrotation
								JOINT LeftArm
								{
									OFFSET 25.438599 -2.830597 -13.032500
									CHANNELS 3 Xrotation Yrotation Zrotation
									JOINT LeftForeArm
									{
										OFFSET 29.960503 0.000000 0.000000
										CHANNELS 3 Xrotation Yrotation Zrotation
										JOINT LeftHand
										{
											OFFSET 27.849251 0.000000 0.000000
											CHANNELS 3 Xrotation Yrotation Zrotation
											End Site
											{
												OFFSET 0 0 0
											}
										}
									}
								}
							}
						}
						JOINT RightShoulder_virtual
						{
							OFFSET 0.000000 0.000000 0.000000
							CHANNELS 3 Xrotation Yrotation Zrotation
							JOINT RightShoulder
							{
								OFFSET -15.263000 10.923401 -0.547700
								CHANNELS 3 Xrotation Yrotation Zrotation
								JOINT RightArm
								{
									OFFSET -25.438599 -2.830597 -13.032500
									CHANNELS 3 Xrotation Yrotation Zrotation
									JOINT RightForeArm
									{
										OFFSET -29.960503 0.000000 0.000000
										CHANNELS 3 Xrotation Yrotation Zrotation
										JOINT RightHand
										{
											OFFSET -27.849251 0.000000 0.000000
											CHANNELS 3 Xrotation Yrotation Zrotation
											End Site
											{
												OFFSET 0 0 0
											}
										}
									}
								}
							}
						}
					}
				}
			}
		}
	}
}
MOTION
Frames: 5
Frame Time: 0.03333333
189.782608 20.555290 -38.796082 0.000000 0.000000 0.000000 -125.189322 -25.943008 50.505223 -88.335376 7.738920 8.212959 116.233236 -3.996902 -3.450994 5.529791 -3.791017 -8.276707 0.000000 0.000000 0.000000 -125.189322 -25.943008 50.505223 -111.091941 -5.202774 0.040210 89.581162 2.554686 2.875750 -7.442385 1.481645 17.883546 0.000000 0.000000 0.000000 -125.189322 -25.943008 50.505223 0.000002 0.000001 0.000002 12.079044 3.524517 2.070261 24.200993 5.707152 2.256767 0.000000 0.000000 0.000000 24.200993 5.707166 2.256770 11.421506 0.576586 -3.901749 0.000000 0.000000 0.000000 24.200993 5.707166 2.256770 0.826483 4.176656 27.061196 -21.500734 -16.600696 -7.566940 -179.751468 -71.255279 -179.765962 0.000000 0.000000 0.000000 24.200993 5.707166 2.256770 2.759745 8.250647 -10.588920 -57.649044 -5.834109 42.145371 -179.941416 60.236640 179.933506 0.000000 0.000000 0.000000 
191.782104 18.976807 -39.307503 0.000000 0.000000 0.000000 -124.422319 -20.661474 54.840665 -83.211006 6.099420 6.986027 115.474812 -3.701166 -3.433634 5.728532 -5.476270 -11.084849 0.000000 0.000000 0.000000 -124.422319 -20.661474 54.840665 -106.514444 -7.329859 0.451742 91.696519 2.279175 2.830054 -10.516523 1.011369 15.768766 0.000000 0.000000 0.000000 -124.422319 -20.661474 54.840665 0.000004 0.000000 0.000001 12.071144 3.846960 2.618163 24.205456 6.078917 2.810439 0.000000 0.000000 0.000000 24.205473 6.078901 2.810421 11.544782 0.753201 -3.855165 0.000000 0.000000 0.000000 24.205473 6.078901 2.810421 0.899518 3.368692 24.482588 -14.606313 -19.867024 -3.868301 -179.645177 -75.575702 -179.662020 0.000000 0.000000 0.000000 24.205473 6.078901 2.810421 3.074231 7.560854 -12.803205 -40.315458 -8.927972 48.040122 -179.914436 63.209330 179.909887 0.000000 0.000000 0.000000 
193.905136 17.767006 -39.878189 0.000000 0.000000 0.000000 -124.328950 -15.090447 59.391924 -79.556022 5.487427 5.736328 114.762532 -2.907851 -3.342460 7.102747 -6.034006 -12.131877 0.000000 0.000000 0.000000 -124.328950 -15.090447 59.391924 -101.682686 -8.462554 0.450015 92.832974 2.004677 2.782940 -13.493632 0.669698 13.833081 0.000000 0.000000 0.000000 -124.328950 -15.090447 59.391924 0.000000 0.000002 -0.000001 11.998272 4.004302 3.097201 24.076791 6.263987 3.298519 0.000000 0.000000 0.000000 24.076792 6.263981 3.298505 11.669907 0.888083 -3.667152 0.000000 0.000000 0.000000 24.076792 6.263981 3.298505 1.106697 2.229509 21.865688 -8.044691 -21.912753 0.331387 -179.496593 -79.484271 -179.517138 0.000000 0.000000 0.000000 24.076792 6.263981 3.298505 3.006499 6.979981 -13.209524 -24.883252 -9.196750 51.059325 -179.855328 71.346537 179.867212 0.000000 0.000000 0.000000 
196.264160 16.597481 -40.530167 0.000000 0.000000 0.000000 -124.797269 -8.982037 64.309305 -78.218138 6.575289 4.526913 113.880202 -1.518769 -3.164019 10.656903 -4.458800 -10.055347 0.000000 0.000000 0.000000 -124.797269 -8.982037 64.309305 -97.724967 -8.163628 -0.178429 92.967966 1.778179 2.744076 -15.747404 0.780441 12.520334 0.000000 0.000000 0.000000 -124.797269 -8.982037 64.309305 0.000001 0.000000 0.000002 11.808606 4.004601 3.416134 23.705766 6.193824 3.640059 0.000000 0.000000 0.000000 23.705763 6.193820 3.640064 11.744322 0.946817 -3.411778 0.000000 0.000000 0.000000 23.705763 6.193820 3.640064 1.311810 1.043488 19.573570 -2.184749 -21.315408 2.321628 -179.446855 -80.889712 -179.471280 0.000000 0.000000 0.000000 23.705763 6.193820 3.640064 2.058696 6.641524 -9.781843 -17.790254 -3.547549 48.458703 -179.454041 86.246520 179.483096 0.000000 0.000000 0.000000 
198.547592 15.918999 -41.212662 0.000000 0.000000 0.000000 -125.789053 -2.717975 69.624011 -78.372705 9.409250 3.932679 112.976486 0.218856 -2.932678 14.789395 -0.783919 -5.763817 0.000000 0.000000 0.000000 -125.789053 -2.717975 69.624011 -94.248052 -7.025428 -1.045700 92.404536 1.602195 2.715731 -17.543686 1.114709 11.653279 0.000000 0.000000 0.000000 -125.789053 -2.717975 69.624011 0.000001 -0.000003 0.000002 11.556250 3.923244 3.544268 23.202424 6.009121 3.780222 0.000000 0.000000 0.000000 23.202433 6.009113 3.780216 11.820180 0.947462 -3.158608 0.000000 0.000000 0.000000 23.202433 6.009113 3.780216 1.507317 -0.163536 17.453273 3.550717 -20.408021 2.406272 -179.445885 -82.284006 -179.474381 0.000000 0.000000 0.000000 23.202433 6.009113 3.780216 0.825812 6.417771 -5.156970 -13.761725 2.862430 43.332452 -0.079354 78.665058 0.117687 0.000000 0.000000 0.000000 
